<?xml version="1.0" encoding="utf-8"?>
<!-- Generator: Adobe Illustrator 16.0.0, SVG Export Plug-In . SVG Version: 6.00 Build 0)  -->
<!DOCTYPE svg PUBLIC "-//W3C//DTD SVG 1.1//EN" "http://www.w3.org/Graphics/SVG/1.1/DTD/svg11.dtd">
<svg version="1.1" id="Layer_1" xmlns="http://www.w3.org/2000/svg" xmlns:xlink="http://www.w3.org/1999/xlink" x="0px" y="0px"
	 width="200px" height="100px" viewBox="0 0 200 100" enable-background="new 0 0 200 100" xml:space="preserve">
<g>
	<path d="M22.11,62.621l5.117-26.911h3.146l-2.274,11.826h0.076c1.554-2.237,3.79-3.677,6.557-3.677
		c2.084,0,4.548,1.289,4.548,4.927c0,0.986-0.114,2.161-0.303,3.108L36.93,62.621h-3.146l2.047-10.575
		c0.114-0.682,0.228-1.516,0.228-2.539c0-1.706-0.796-3.032-2.843-3.032c-2.426,0-5.496,2.843-6.254,6.974l-1.706,9.173H22.11z"/>
	<path d="M54.514,62.621c0-1.1,0.189-2.843,0.417-4.738h-0.076c-2.009,3.791-4.511,5.155-7.126,5.155
		c-3.222,0-5.269-2.577-5.269-6.064c0-6.368,4.7-13.114,12.698-13.114c1.743,0,3.676,0.303,4.927,0.72l-1.857,9.552
		c-0.606,3.184-0.872,6.443-0.796,8.49H54.514z M56.561,46.626c-0.455-0.113-1.137-0.266-2.198-0.266
		c-4.738,0-8.604,4.966-8.642,10.045c0,2.047,0.72,4.056,3.146,4.056c2.615,0,5.723-3.411,6.633-8.301L56.561,46.626z"/>
	<path d="M62.129,62.621l2.464-13.001c0.417-2.047,0.645-3.828,0.872-5.344h2.805l-0.455,3.601h0.076
		c1.629-2.578,4.093-4.018,6.784-4.018c2.199,0,4.662,1.25,4.662,5.117c0,0.796-0.151,1.971-0.341,2.956l-2.047,10.688h-3.146
		l2.009-10.575c0.152-0.72,0.265-1.592,0.265-2.35c0-1.857-0.72-3.222-2.88-3.222c-2.236,0-5.42,2.691-6.254,7.239l-1.668,8.907
		H62.129z"/>
	<path d="M86.157,44.276l1.819,9.893c0.417,2.085,0.644,3.449,0.833,4.813h0.076c0.493-1.175,1.023-2.464,1.971-4.473l4.662-10.233
		h3.335l-6.86,13.948c-1.971,3.979-3.828,7.201-6.33,9.627c-2.047,2.085-4.283,2.957-5.345,3.184l-0.758-2.69
		c0.796-0.304,2.123-0.796,3.374-1.782c1.213-0.947,2.54-2.426,3.525-4.207c0.151-0.303,0.151-0.53,0.114-0.834l-3.677-17.245
		H86.157z"/>
	<path d="M116.135,51.516c0,5.647-4.018,11.522-10.158,11.522c-4.586,0-7.163-3.411-7.163-7.543c0-6.026,4.207-11.636,10.158-11.636
		C113.937,43.859,116.135,47.611,116.135,51.516z M102.073,55.382c0,2.994,1.63,5.154,4.32,5.154c3.715,0,6.52-4.775,6.52-9.059
		c0-2.122-0.985-5.117-4.283-5.117C104.688,46.36,102.035,51.175,102.073,55.382z"/>
	<path d="M118.33,62.621l2.464-13.001c0.417-2.047,0.644-3.828,0.871-5.344h2.805l-0.454,3.601h0.075
		c1.63-2.578,4.094-4.018,6.785-4.018c2.198,0,4.662,1.25,4.662,5.117c0,0.796-0.152,1.971-0.342,2.956l-2.047,10.688h-3.146
		l2.009-10.575c0.151-0.72,0.266-1.592,0.266-2.35c0-1.857-0.721-3.222-2.881-3.222c-2.236,0-5.42,2.691-6.254,7.239l-1.668,8.907
		H118.33z"/>
	<path d="M138.757,66.79c1.099,0.683,2.918,1.213,4.852,1.213c3.07,0,5.496-1.592,6.595-6.557l0.606-2.729h-0.113
		c-1.592,2.615-3.828,3.904-6.368,3.904c-3.677,0-5.571-3.108-5.571-6.367c-0.038-6.217,4.548-12.395,11.636-12.395
		c2.123,0,4.435,0.606,5.875,1.289l-2.805,15.161c-0.758,3.866-1.781,6.558-3.715,8.188c-1.819,1.592-4.282,2.047-6.405,2.047
		c-2.236,0-4.321-0.531-5.496-1.289L138.757,66.79z M152.818,47.005c-0.568-0.265-1.705-0.606-3.032-0.606
		c-4.586,0-7.731,4.776-7.77,9.324c0,2.009,0.72,4.396,3.524,4.396c2.691,0,5.42-3.411,6.103-7.012L152.818,47.005z"/>
	<path d="M175.291,40.713h-8.452l-1.933,6.253c0.417-0.075,0.796-0.075,1.213-0.075c1.326,0,2.918,0.303,4.283,1.175
		c2.046,1.137,2.956,3.298,2.956,5.42c0,5.989-4.776,9.552-10.12,9.552c-2.388,0-4.511-0.72-5.307-1.364l0.985-2.502
		c0.872,0.568,2.615,1.175,4.587,1.175c3.524,0,6.595-2.767,6.595-6.178c0-2.653-1.364-4.776-5.951-4.776
		c-1.022,0-1.781,0.076-2.767,0.152l3.411-11.561h11.03L175.291,40.713z"/>
</g>
</svg>
